<svg width="101" height="71" viewBox="0 0 101 71" fill="none" xmlns="http://www.w3.org/2000/svg">
<path d="M67.1808 35.5C64.5138 35.5 62.0046 34.0762 60.6474 31.798L50.5001 14.9336L40.3685 31.798C38.9955 34.092 36.4863 35.5158 33.8193 35.5158C33.1091 35.5158 32.399 35.4209 31.7204 35.2152L10.1001 29.0137V57.1738C10.1001 59.4994 11.6782 61.5244 13.9191 62.0781L48.0382 70.6369C49.6479 71.0324 51.3365 71.0324 52.9304 70.6369L87.081 62.0781C89.3219 61.5086 90.9001 59.4836 90.9001 57.1738V29.0137L69.2798 35.1994C68.6012 35.4051 67.891 35.5 67.1808 35.5ZM100.732 17.7496L92.6044 1.48632C92.1152 0.505457 91.0579 -0.0640742 89.969 0.0783086L50.5001 5.12499L64.9715 29.1877C65.5712 30.1844 66.7705 30.659 67.891 30.3426L99.1221 21.4041C100.684 20.9453 101.442 19.2051 100.732 17.7496ZM8.39571 1.48632L0.268369 17.7496C-0.457568 19.2051 0.315713 20.9453 1.86227 21.3883L33.0934 30.3267C34.2138 30.6432 35.4132 30.1685 36.0129 29.1719L50.5001 5.12499L11.0154 0.0783086C9.92649 -0.0482539 8.88493 0.505457 8.39571 1.48632Z" fill="#C2C2C2"/>
</svg>
